# Blender 4.1.1
# www.blender.org
mtllib plane.mtl
o Cube.001
v 0.251418 0.699453 0.696117
v 0.251418 0.699453 0.696117
v 0.251418 0.699453 0.696117
v 0.254519 0.871440 0.697410
v 0.254519 0.871440 0.697410
v 0.254519 0.871440 0.697410
v -0.900392 0.401566 -0.095094
v -0.900392 0.401566 -0.095094
v -0.900392 0.401566 -0.095094
v -0.900392 0.401566 -0.095094
v -0.897291 0.573553 -0.093801
v -0.897291 0.573553 -0.093801
v -0.897291 0.573553 -0.093801
v -0.897291 0.573553 -0.093801
v 1.473684 0.676942 0.759382
v 1.473684 0.676942 0.759382
v 1.473684 0.676942 0.759382
v 1.476785 0.848929 0.760676
v 1.476785 0.848929 0.760676
v 1.476785 0.848929 0.760676
v 0.634970 0.373289 -0.015622
v 0.634970 0.373289 -0.015622
v 0.634970 0.373289 -0.015622
v 0.634970 0.373289 -0.015622
v 0.638070 0.545276 -0.014329
v 0.638070 0.545276 -0.014329
v 0.638070 0.545276 -0.014329
v 0.638070 0.545276 -0.014329
v 0.326907 0.709032 -0.758886
v 0.326907 0.709032 -0.758886
v 0.326907 0.709032 -0.758886
v 0.330007 0.881019 -0.757593
v 0.330007 0.881019 -0.757593
v 0.330007 0.881019 -0.757593
v 1.549173 0.686521 -0.695620
v 1.549173 0.686521 -0.695620
v 1.549173 0.686521 -0.695620
v 1.552273 0.858508 -0.694327
v 1.552273 0.858508 -0.694327
v 1.552273 0.858508 -0.694327
vn -0.5669 0.0040 0.8238
vn -0.0046 0.9106 0.4132
vn 0.6800 -0.0067 -0.7332
vn -0.0518 -0.0066 0.9986
vn -0.0375 -0.9160 0.3995
vn 0.0375 0.9160 -0.3995
vn 0.0518 0.0066 -0.9986
vn -0.4786 0.0152 -0.8779
vn 0.6004 -0.0168 0.7995
vn 0.0046 -0.9106 -0.4132
vt 0.375000 0.000000
vt 0.625000 0.000000
vt 0.625000 0.250000
vt 0.375000 0.250000
vt 0.875000 0.500000
vt 0.625000 0.500000
vt 0.375000 0.500000
vt 0.625000 0.750000
vt 0.375000 0.750000
vt 0.625000 1.000000
vt 0.375000 1.000000
vt 0.125000 0.500000
vt 0.125000 0.750000
vt 0.875000 0.750000
s 0
usemtl Material.001
f 3/1/1 6/2/1 13/3/1
f 3/1/1 13/3/1 9/4/1
f 11/5/2 25/6/2 39/6/2
f 11/5/2 39/6/2 33/5/2
f 24/7/3 28/6/3 20/8/3
f 24/7/3 20/8/3 17/9/3
f 15/9/4 18/8/4 4/10/4
f 15/9/4 4/10/4 1/11/4
f 7/12/5 21/7/5 16/9/5
f 7/12/5 16/9/5 2/13/5
f 26/6/6 12/5/6 5/14/6
f 26/6/6 5/14/6 19/8/6
f 29/4/7 32/3/7 38/6/7
f 29/4/7 38/6/7 35/7/7
f 10/4/8 14/3/8 34/3/8
f 10/4/8 34/3/8 31/4/8
f 27/6/9 23/7/9 37/7/9
f 27/6/9 37/7/9 40/6/9
f 22/7/10 8/12/10 30/12/10
f 22/7/10 30/12/10 36/7/10
