# Blender 4.2.1 LTS
# www.blender.org
mtllib sword.mtl
o Cylinder
v 0.000000 -1.408518 -1.000000
v 0.000000 -1.078543 -0.565521
v 0.707107 -1.408518 -0.707107
v 0.399884 -1.078543 -0.399884
v 1.000000 -1.408518 0.000000
v 0.565521 -1.078543 0.000000
v 0.707107 -1.408518 0.707107
v 0.399884 -1.078543 0.399884
v 0.000000 -1.408518 1.000000
v 0.000000 -1.078543 0.565521
v -0.707107 -1.408518 0.707107
v -0.399884 -1.078543 0.399884
v -1.000000 -1.408518 0.000000
v -0.565521 -1.078543 0.000000
v -0.707107 -1.408518 -0.707107
v -0.399884 -1.078543 -0.399884
v 0.707107 -1.140514 -0.707107
v 0.000000 -1.140514 -1.000000
v 1.000000 -1.140514 0.000000
v 0.707107 -1.140514 0.707107
v 0.000000 -1.140514 1.000000
v -0.707107 -1.140514 0.707107
v -1.000000 -1.140514 0.000000
v -0.707107 -1.140514 -0.707107
v 0.000000 2.550942 -0.565521
v 0.399884 2.550942 -0.399884
v 0.565521 2.550942 0.000000
v 0.399884 2.550942 0.399884
v 0.000000 2.550942 0.565521
v -0.399884 2.550942 0.399884
v -0.565521 2.550942 0.000000
v -0.399884 2.550942 -0.399884
v -0.793232 2.550942 0.000000
v -0.597603 2.550942 -2.007328
v -0.597603 2.901563 -2.007328
v -0.266615 3.104788 -2.614173
v -0.266615 3.307697 -2.614173
v -0.793232 2.914794 0.000000
v -0.707107 -1.408518 -0.707107
v -0.704644 -1.458891 0.000000
v -0.565521 -1.078543 0.000000
v -0.707107 -1.408518 0.707107
v -0.399884 -1.078543 0.399884
v 0.704644 -1.458891 0.000000
v -0.707107 -1.140514 -0.707107
v -0.707107 -1.140514 0.707107
v -0.399884 2.550942 -0.399884
v -0.565521 2.550942 0.000000
v -0.399884 2.550942 0.399884
v 0.399884 2.550942 0.399884
v 0.565521 2.550942 0.000000
v 0.399884 2.550942 -0.399884
v 0.793232 2.550942 0.000000
v 0.597603 2.550942 -2.007328
v 0.597603 2.901563 -2.007328
v 0.266615 3.104788 -2.614173
v 0.266615 3.307697 -2.614173
v 0.793232 2.914794 0.000000
v 0.000000 -1.458891 0.704644
v 0.000000 -1.458891 -0.704644
v -0.399884 -1.078543 -0.399884
v 0.000000 2.550942 0.565521
v 0.399884 2.550942 0.399884
v 0.399884 2.550942 -0.399884
v 0.000000 2.550942 -0.565521
v -0.399884 2.550942 -0.399884
v -0.399884 2.550942 0.399884
v -0.597603 2.550942 2.007328
v -0.597603 2.901563 2.007328
v -0.266615 3.104788 2.614173
v -0.266615 3.307697 2.614173
v -0.498258 -1.458891 0.498258
v -0.399884 -1.078543 0.399884
v -0.498258 -1.458891 -0.498258
v 0.498258 -1.458891 -0.498258
v 0.498258 -1.458891 0.498258
v -0.707107 -1.140514 0.707107
v -0.399884 2.550942 0.399884
v -0.399884 2.550942 -0.399884
v 0.399884 2.550942 -0.399884
v 0.399884 2.550942 0.399884
v 0.597603 2.550942 2.007328
v 0.597603 2.901563 2.007328
v 0.266615 3.104788 2.614173
v 0.266615 3.307697 2.614173
v 0.000000 2.914794 0.000000
v 0.000000 16.142811 0.000000
v 0.000000 2.901563 -2.007328
v 0.000000 2.908178 -1.003664
v -0.396616 2.914794 0.000000
v 0.396616 2.914794 0.000000
v -0.396616 14.915553 0.000000
v 0.396616 14.915553 0.000000
v 0.000000 2.901563 2.007328
v 0.000000 2.908178 1.003664
v 0.000000 15.152757 -1.003664
v 0.000000 15.152757 1.003664
v 0.000000 -1.408518 1.000000
v -0.707107 -1.408518 0.707107
v -1.000000 -1.408518 0.000000
v -0.707107 -1.408518 -0.707107
v 0.000000 -1.408518 -1.000000
v 0.707107 -1.408518 -0.707107
v 1.000000 -1.408518 0.000000
v 0.707107 -1.408518 0.707107
vn 0.3827 -0.0000 -0.9239
vn 0.9239 -0.0000 -0.3827
vn 0.9239 -0.0000 0.3827
vn 0.3827 -0.0000 0.9239
vn -0.9239 -0.0000 0.3827
vn -0.9239 -0.0000 -0.3827
vn 0.0584 0.9883 -0.1410
vn 0.1410 0.9883 -0.0584
vn 0.1410 0.9883 0.0584
vn 0.0584 0.9883 0.1410
vn -0.1410 0.9883 0.0584
vn -0.1410 0.9883 -0.0584
vn -0.0584 0.9883 -0.1410
vn -0.0000 1.0000 -0.0000
vn -0.3827 -0.0000 -0.9239
vn -0.3827 -0.0000 0.9239
vn -0.8779 -0.0000 -0.4788
vn -0.0584 0.9883 0.1410
vn 0.8779 -0.0000 -0.4788
vn -0.8779 -0.0000 0.4788
vn -0.0000 -1.0000 -0.0000
vn 0.8779 -0.0000 0.4788
vn -0.9953 -0.0000 -0.0970
vn -0.9953 -0.0000 0.0970
vn -0.0000 -0.0000 1.0000
vn -0.0000 -0.7386 0.6741
vn -0.0000 0.8311 -0.5562
vn -0.0000 -0.7386 -0.6741
vn -0.0000 -0.0000 -1.0000
vn -0.0000 0.8311 0.5562
vn -0.0000 1.0000 -0.0066
vn -0.0000 1.0000 0.0066
vn 0.9953 -0.0000 0.0970
vn 0.9953 -0.0000 -0.0970
vn -0.9300 -0.0000 -0.3675
vn -0.9300 -0.0000 0.3675
vn 0.9300 -0.0000 -0.3675
vn 0.9300 -0.0000 0.3675
vn 0.9106 -0.2943 0.2903
vn 0.9106 -0.2943 -0.2903
vn -0.9106 -0.2943 0.2903
vn -0.9106 -0.2943 -0.2903
vn -0.0695 -0.9834 0.1677
vn -0.1677 -0.9834 0.0695
vn -0.1677 -0.9834 -0.0695
vn -0.0695 -0.9834 -0.1677
vn 0.0695 -0.9834 -0.1677
vn 0.1677 -0.9834 -0.0695
vn 0.1677 -0.9834 0.0695
vn 0.0695 -0.9834 0.1677
vt 1.000000 0.500000
vt 1.000000 1.000000
vt 0.875000 1.000000
vt 0.875000 0.500000
vt 0.750000 1.000000
vt 0.750000 0.500000
vt 0.625000 1.000000
vt 0.625000 0.500000
vt 0.500000 1.000000
vt 0.500000 0.500000
vt 0.375000 0.500000
vt 0.375000 1.000000
vt 0.250000 1.000000
vt 0.250000 0.500000
vt 0.345972 0.154028
vt 0.385725 0.250000
vt 0.125000 1.000000
vt 0.125000 0.500000
vt 0.250000 0.385725
vt 0.345972 0.345972
vt 0.419706 0.419706
vt 0.250000 0.490000
vt 0.490000 0.250000
vt 0.419706 0.080294
vt 0.250000 0.114275
vt 0.250000 0.010000
vt 0.154028 0.154028
vt 0.114275 0.250000
vt 0.010000 0.250000
vt 0.080294 0.080294
vt 0.154028 0.345972
vt 0.080294 0.419706
vt 0.000000 0.000000
vt 0.750000 0.449850
vt 0.891316 0.391316
vt 0.949851 0.250000
vt 0.891316 0.108684
vt 0.750000 0.050150
vt 0.608684 0.108684
vt 0.550150 0.250000
vt 0.608684 0.391316
vt 0.750000 0.490000
vt 0.919706 0.419706
vt 0.990000 0.250000
vt 0.919706 0.080294
vt 0.750000 0.010000
vt 0.580294 0.080294
vt 0.510000 0.250000
vt 0.580294 0.419706
s 0
usemtl Material.001
f 26/20/14 25/19/14 32/31/14 31/28/14 30/27/14 29/25/14 28/15/14 27/16/14
f 34/33/17 35/33/17 37/33/17 36/33/17
f 47/20/14 48/16/14 49/15/14 29/25/14 50/27/14 51/28/14 52/31/14 25/19/14
f 54/33/19 56/33/19 57/33/19 55/33/19
f 63/20/14 27/16/14 64/15/14 65/25/14 66/27/14 31/28/14 67/31/14 62/19/14
f 68/33/20 70/33/20 71/33/20 69/33/20
f 78/20/14 62/19/14 81/31/14 51/28/14 80/27/14 65/25/14 79/15/14 48/16/14
f 82/33/22 83/33/22 85/33/22 84/33/22
f 38/33/23 35/33/23 34/33/23 33/33/23
f 38/33/24 33/33/24 68/33/24 69/33/24
f 71/33/25 70/33/25 84/33/25 85/33/25
f 68/33/26 82/33/26 84/33/26 70/33/26
f 71/33/27 85/33/27 83/33/27 94/33/27 69/33/27
f 68/33/21 33/33/21 53/33/21 82/33/21
f 34/33/21 54/33/21 53/33/21 33/33/21
f 34/33/28 36/33/28 56/33/28 54/33/28
f 37/33/29 57/33/29 56/33/29 36/33/29
f 37/33/30 35/33/30 88/33/30 55/33/30 57/33/30
f 35/33/31 38/33/31 90/33/31 86/33/31 89/33/31 88/33/31
f 38/33/32 69/33/32 94/33/32 95/33/32 86/33/32 90/33/32
f 58/33/33 83/33/33 82/33/33 53/33/33
f 54/33/34 55/33/34 58/33/34 53/33/34
f 88/33/31 89/33/31 86/33/31 91/33/31 58/33/31 55/33/31
f 86/33/32 95/33/32 94/33/32 83/33/32 58/33/32 91/33/32
usemtl Material.002
f 1/1/1 18/2/1 17/3/1 3/4/1
f 3/4/2 17/3/2 19/5/2 5/6/2
f 5/6/3 19/5/3 20/7/3 7/8/3
f 7/8/4 20/7/4 21/9/4 9/10/4
f 11/11/5 22/12/5 23/13/5 13/14/5
f 13/14/6 23/13/6 24/17/6 15/18/6
f 2/19/7 4/20/7 17/21/7 18/22/7
f 4/20/8 6/16/8 19/23/8 17/21/8
f 6/16/9 8/15/9 20/24/9 19/23/9
f 8/15/10 10/25/10 21/26/10 20/24/10
f 12/27/11 14/28/11 23/29/11 22/30/11
f 14/28/12 16/31/12 24/32/12 23/29/12
f 16/31/13 2/19/13 18/22/13 24/32/13
f 1/1/15 39/4/15 45/3/15 18/2/15
f 42/8/16 9/10/16 21/9/16 46/7/16
f 43/15/18 46/24/18 21/26/18 10/25/18
f 59/34/21 72/35/21 40/36/21 74/37/21 60/38/21 75/39/21 44/40/21 76/41/21
f 72/35/43 59/34/43 98/42/43 99/43/43
f 40/36/44 72/35/44 99/43/44 100/44/44
f 74/37/45 40/36/45 100/44/45 101/45/45
f 60/38/46 74/37/46 101/45/46 102/46/46
f 75/39/47 60/38/47 102/46/47 103/47/47
f 44/40/48 75/39/48 103/47/48 104/48/48
f 76/41/49 44/40/49 104/48/49 105/49/49
f 59/34/50 76/41/50 105/49/50 98/42/50
usemtl Material.003
f 8/15/3 6/16/3 27/16/3 28/15/3
f 4/20/1 2/19/1 25/19/1 26/20/1
f 2/19/15 16/31/15 32/31/15 25/19/15
f 14/28/5 12/27/5 30/27/5 31/28/5
f 10/25/4 8/15/4 28/15/4 29/25/4
f 6/16/2 4/20/2 26/20/2 27/16/2
f 12/27/16 10/25/16 29/25/16 30/27/16
f 14/28/6 31/28/6 66/27/6 61/27/6
usemtl Material.004
f 93/33/35 91/33/35 95/33/35 97/33/35
f 93/33/36 96/33/36 89/33/36 91/33/36
f 92/33/37 97/33/37 95/33/37 90/33/37
f 92/33/38 90/33/38 89/33/38 96/33/38
f 96/33/39 87/33/39 92/33/39
f 97/33/40 92/33/40 87/33/40
f 96/33/41 93/33/41 87/33/41
f 97/33/42 87/33/42 93/33/42
l 31 33
l 51 53
l 77 99
l 86 87
